<?xml version="1.0" encoding="UTF-8"?>
<!DOCTYPE svg PUBLIC "-//W3C//DTD SVG 1.1//EN" "http://www.w3.org/Graphics/SVG/1.1/DTD/svg11.dtd">
<svg xmlns="http://www.w3.org/2000/svg" version="1.1" width="599px" height="399px" style="shape-rendering:geometricPrecision; text-rendering:geometricPrecision; image-rendering:optimizeQuality; fill-rule:evenodd; clip-rule:evenodd" xmlns:xlink="http://www.w3.org/1999/xlink">
<g><path style="opacity:1" fill="#efaf90" d="M 61.5,86.5 C 57.6735,90.3686 55.0069,95.0352 53.5,100.5C 49.9887,94.8021 45.822,89.4687 41,84.5C 34.0323,71.6009 29.0323,57.9342 26,43.5C 23.3144,38.4547 20.8144,33.288 18.5,28C 20.5814,26.618 20.9147,24.9513 19.5,23C 22.0699,18.2169 24.2365,18.3836 26,23.5C 26.2492,22.376 26.7492,21.376 27.5,20.5C 29.817,24.9464 31.6504,29.6131 33,34.5C 34.3513,32.981 35.8513,31.6477 37.5,30.5C 38.1078,33.9874 36.9411,36.9874 34,39.5C 36.1482,48.4896 39.4815,57.1563 44,65.5C 49.668,72.6653 55.5014,79.6653 61.5,86.5 Z"/></g>
<g><path style="opacity:0.8" fill="#797988" d="M 295.5,33.5 C 289.855,32.284 284.188,32.284 278.5,33.5C 281.356,31.9942 284.523,31.3275 288,31.5C 290.167,31.6667 292.333,31.8333 294.5,32C 295.056,32.3826 295.389,32.8826 295.5,33.5 Z"/></g>
<g><path style="opacity:1" fill="#2f2f4c" d="M 295.5,33.5 C 297.293,35.4261 298.293,37.7594 298.5,40.5C 298.785,42.288 298.452,43.9547 297.5,45.5C 292.833,46.5 288.167,47.5 283.5,48.5C 282.686,50.7662 282.186,53.0995 282,55.5C 280.991,53.9751 280.491,52.3084 280.5,50.5C 279.167,50.5 277.833,50.5 276.5,50.5C 276.5,52.1667 276.5,53.8333 276.5,55.5C 275.883,55.6107 275.383,55.944 275,56.5C 274.722,55.5842 274.222,54.9175 273.5,54.5C 271.959,49.6362 271.292,44.6362 271.5,39.5C 271.414,38.5041 271.748,37.6708 272.5,37C 274.405,35.5787 276.405,34.412 278.5,33.5C 284.188,32.284 289.855,32.284 295.5,33.5 Z"/></g>
<g><path style="opacity:0.725" fill="#6c7480" d="M 523.5,38.5 C 518.797,38.4372 514.13,38.7705 509.5,39.5C 511.807,37.9532 514.473,37.2865 517.5,37.5C 519.696,37.5046 521.696,37.838 523.5,38.5 Z"/></g>
<g><path style="opacity:1" fill="#29394c" d="M 523.5,38.5 C 527.717,39.05 530.384,41.3833 531.5,45.5C 531.963,48.4824 532.296,51.4824 532.5,54.5C 529.116,54.6604 525.783,54.327 522.5,53.5C 520.429,54.6175 518.262,55.6175 516,56.5C 514.699,55.1068 513.199,54.6068 511.5,55C 510.685,62.0867 510.185,69.2534 510,76.5C 509.072,79.0352 507.238,80.0352 504.5,79.5C 504.245,76.9837 503.411,74.6504 502,72.5C 494.357,66.3949 492.524,58.8949 496.5,50C 497.745,49.2086 499.078,48.7086 500.5,48.5C 501.833,48.5 503.167,48.5 504.5,48.5C 504.629,46.7839 504.962,45.1172 505.5,43.5C 507.167,42.5 508.5,41.1667 509.5,39.5C 514.13,38.7705 518.797,38.4372 523.5,38.5 Z"/></g>
<g><path style="opacity:0.808" fill="#818793" d="M 509.5,39.5 C 508.5,41.1667 507.167,42.5 505.5,43.5C 505.833,41.1667 507.167,39.8333 509.5,39.5 Z"/></g>
<g><path style="opacity:1" fill="#eba988" d="M 298.5,40.5 C 299.657,48.6563 299.823,56.9896 299,65.5C 297.668,67.66 296.168,69.66 294.5,71.5C 290.329,69.7689 285.996,68.6022 281.5,68C 285.2,71.1792 289.533,72.6792 294.5,72.5C 295.038,74.1172 295.371,75.7839 295.5,77.5C 290.391,77.5698 285.391,76.9031 280.5,75.5C 280.737,74.209 280.404,73.209 279.5,72.5C 278.918,67.9166 277.585,63.5833 275.5,59.5C 276.434,58.4324 276.768,57.099 276.5,55.5C 276.5,53.8333 276.5,52.1667 276.5,50.5C 277.833,50.5 279.167,50.5 280.5,50.5C 280.491,52.3084 280.991,53.9751 282,55.5C 282.186,53.0995 282.686,50.7662 283.5,48.5C 288.167,47.5 292.833,46.5 297.5,45.5C 298.452,43.9547 298.785,42.288 298.5,40.5 Z"/></g>
<g><path style="opacity:0.835" fill="#969ca6" d="M 505.5,43.5 C 504.962,45.1172 504.629,46.7839 504.5,48.5C 503.167,48.5 501.833,48.5 500.5,48.5C 501.209,47.596 502.209,47.2627 503.5,47.5C 503.229,45.6203 503.896,44.287 505.5,43.5 Z"/></g>
<g><path style="opacity:0.682" fill="#818290" d="M 271.5,39.5 C 271.292,44.6362 271.959,49.6362 273.5,54.5C 271.418,51.2178 270.085,47.5512 269.5,43.5C 269.668,41.8295 270.335,40.4961 271.5,39.5 Z"/></g>
<g><path style="opacity:0.635" fill="#838595" d="M 96.5,52.5 C 91.5,51.1667 86.5,51.1667 81.5,52.5C 83.6345,50.9666 86.1345,50.2999 89,50.5C 91.8655,50.2999 94.3655,50.9666 96.5,52.5 Z"/></g>
<g><path style="opacity:1" fill="#3c3f5c" d="M 96.5,52.5 C 98.7946,53.1355 100.461,54.4689 101.5,56.5C 102.36,60.4338 102.693,64.4338 102.5,68.5C 101.191,73.1208 98.8577,77.1208 95.5,80.5C 95.6781,77.6781 96.3448,75.0115 97.5,72.5C 97.1667,71.5 96.8333,70.5 96.5,69.5C 95.549,70.3256 94.549,70.4922 93.5,70C 91.5321,66.1937 88.5321,63.6937 84.5,62.5C 81.7778,60.3273 78.7778,59.9939 75.5,61.5C 75.8333,60.1667 76.1667,58.8333 76.5,57.5C 77.1667,54.8333 78.8333,53.1667 81.5,52.5C 86.5,51.1667 91.5,51.1667 96.5,52.5 Z"/></g>
<g><path style="opacity:0.396" fill="#9a9a9f" d="M 531.5,45.5 C 532.973,48.0169 533.64,50.8502 533.5,54C 533.494,56.0326 533.161,57.866 532.5,59.5C 532.5,57.8333 532.5,56.1667 532.5,54.5C 532.296,51.4824 531.963,48.4824 531.5,45.5 Z"/></g>
<g><path style="opacity:1" fill="#8a4e3a" d="M 532.5,54.5 C 532.5,56.1667 532.5,57.8333 532.5,59.5C 531.035,64.3538 529.701,69.3538 528.5,74.5C 528.5,75.1667 528.167,75.5 527.5,75.5C 525.833,75.5 524.167,75.5 522.5,75.5C 522.087,78.3202 523.087,80.3202 525.5,81.5C 528.108,87.5641 526.108,90.8974 519.5,91.5C 513.088,89.7538 508.088,86.0872 504.5,80.5C 504.5,80.1667 504.5,79.8333 504.5,79.5C 507.238,80.0352 509.072,79.0352 510,76.5C 510.185,69.2534 510.685,62.0867 511.5,55C 513.199,54.6068 514.699,55.1068 516,56.5C 518.262,55.6175 520.429,54.6175 522.5,53.5C 525.783,54.327 529.116,54.6604 532.5,54.5 Z"/></g>
<g><path style="opacity:1" fill="#85757a" d="M 273.5,54.5 C 274.222,54.9175 274.722,55.5842 275,56.5C 275.383,55.944 275.883,55.6107 276.5,55.5C 276.768,57.099 276.434,58.4324 275.5,59.5C 274.058,58.1805 273.392,56.5138 273.5,54.5 Z"/></g>
<g><path style="opacity:1" fill="#4b5183" d="M 502.5,50.5 C 503.148,55.0849 504.481,59.5849 506.5,64C 503.506,63.6416 501.673,61.8083 501,58.5C 500.109,55.5024 500.609,52.8357 502.5,50.5 Z"/></g>
<g><path style="opacity:0.322" fill="#a19ca9" d="M 76.5,57.5 C 76.1667,58.8333 75.8333,60.1667 75.5,61.5C 75.1667,62.5 74.5,63.1667 73.5,63.5C 73.7549,61.0326 74.7549,59.0326 76.5,57.5 Z"/></g>
<g><path style="opacity:0.796" fill="#bb998e" d="M 532.5,59.5 C 532.549,64.977 531.216,69.977 528.5,74.5C 529.701,69.3538 531.035,64.3538 532.5,59.5 Z"/></g>
<g><path style="opacity:1" fill="#e47451" d="M 84.5,62.5 C 81.0266,64.6524 77.3599,66.3191 73.5,67.5C 73.5,66.5 73.5,65.5 73.5,64.5C 73.5,64.1667 73.5,63.8333 73.5,63.5C 74.5,63.1667 75.1667,62.5 75.5,61.5C 78.7778,59.9939 81.7778,60.3273 84.5,62.5 Z"/></g>
<g><path style="opacity:1" fill="#7f8194" d="M 101.5,56.5 C 104.868,60.2613 105.201,64.2613 102.5,68.5C 102.693,64.4338 102.36,60.4338 101.5,56.5 Z"/></g>
<g><path style="opacity:1" fill="#b5816b" d="M 294.5,71.5 C 296.38,71.2291 297.713,71.8958 298.5,73.5C 297.167,73.1667 295.833,72.8333 294.5,72.5C 289.533,72.6792 285.2,71.1792 281.5,68C 285.996,68.6022 290.329,69.7689 294.5,71.5 Z"/></g>
<g><path style="opacity:1" fill="#b9403c" d="M 279.5,72.5 C 280.404,73.209 280.737,74.209 280.5,75.5C 285.391,76.9031 290.391,77.5698 295.5,77.5C 295.371,75.7839 295.038,74.1172 294.5,72.5C 295.833,72.8333 297.167,73.1667 298.5,73.5C 299.167,74.1667 299.833,74.8333 300.5,75.5C 298.598,78.3373 297.931,81.6707 298.5,85.5C 288.005,84.3775 278.005,81.7108 268.5,77.5C 268.167,77.5 267.833,77.5 267.5,77.5C 270.464,76.7422 273.13,75.2422 275.5,73C 276.793,72.51 278.127,72.3433 279.5,72.5 Z"/></g>
<g><path style="opacity:0.561" fill="#c7949a" d="M 298.5,73.5 C 302.011,73.8994 305.344,74.5661 308.5,75.5C 307.167,75.5 305.833,75.5 304.5,75.5C 303.5,75.5 302.5,75.5 301.5,75.5C 301.167,75.5 300.833,75.5 300.5,75.5C 299.833,74.8333 299.167,74.1667 298.5,73.5 Z"/></g>
<g><path style="opacity:0.349" fill="#cbb2a7" d="M 527.5,75.5 C 526.432,76.4345 525.099,76.7678 523.5,76.5C 523.281,77.675 523.614,78.675 524.5,79.5C 525.739,79.9424 526.739,80.6091 527.5,81.5C 526.833,81.5 526.167,81.5 525.5,81.5C 523.087,80.3202 522.087,78.3202 522.5,75.5C 524.167,75.5 525.833,75.5 527.5,75.5 Z"/></g>
<g><path style="opacity:1" fill="#d54747" d="M 304.5,75.5 C 305.833,75.5 307.167,75.5 308.5,75.5C 312.565,77.2329 315.232,80.2329 316.5,84.5C 316.427,86.0269 317.094,87.0269 318.5,87.5C 322.403,94.3032 326.07,101.303 329.5,108.5C 329.62,109.586 330.287,110.253 331.5,110.5C 338.413,112.349 345.413,113.683 352.5,114.5C 354.415,114.216 356.081,114.549 357.5,115.5C 358.192,118.139 357.859,120.806 356.5,123.5C 354.955,124.452 353.288,124.785 351.5,124.5C 347.409,123.105 343.076,122.438 338.5,122.5C 335.43,122.632 332.43,122.299 329.5,121.5C 327.786,120.262 325.786,119.595 323.5,119.5C 322.089,117.086 320.089,115.419 317.5,114.5C 317.806,111.615 317.473,108.948 316.5,106.5C 315.56,94.9575 311.56,84.6242 304.5,75.5 Z"/></g>
<g><path style="opacity:1" fill="#d43f41" d="M 300.5,75.5 C 300.833,75.5 301.167,75.5 301.5,75.5C 308.965,85.5521 313.299,96.8854 314.5,109.5C 314.334,115.842 314.5,122.175 315,128.5C 315.232,129.737 315.732,130.737 316.5,131.5C 317.598,136.092 318.265,140.759 318.5,145.5C 318.747,148.939 318.414,152.272 317.5,155.5C 303.903,160.286 289.903,163.286 275.5,164.5C 274.255,162.358 272.755,160.358 271,158.5C 268.38,159.206 265.88,160.206 263.5,161.5C 262.818,160.757 262.151,160.091 261.5,159.5C 259.499,152.808 257.499,146.142 255.5,139.5C 254.291,133.015 252.957,126.681 251.5,120.5C 250.774,116.679 250.774,112.679 251.5,108.5C 253.272,100.982 254.939,93.3152 256.5,85.5C 258.012,83.404 259.678,81.404 261.5,79.5C 262.209,78.596 263.209,78.2627 264.5,78.5C 273.614,87.6869 276.781,98.6869 274,111.5C 272.613,116.675 270.28,121.342 267,125.5C 265.878,122.924 264.878,120.257 264,117.5C 264.161,122.504 264.661,127.504 265.5,132.5C 266.35,137.232 267.516,141.899 269,146.5C 269.873,141.556 269.373,136.89 267.5,132.5C 267.491,130.692 267.991,129.025 269,127.5C 281.783,110.713 281.616,94.0465 268.5,77.5C 278.005,81.7108 288.005,84.3775 298.5,85.5C 297.931,81.6707 298.598,78.3373 300.5,75.5 Z"/></g>
<g><path style="opacity:1" fill="#453955" d="M 267.5,77.5 C 267.833,77.5 268.167,77.5 268.5,77.5C 281.616,94.0465 281.783,110.713 269,127.5C 267.991,129.025 267.491,130.692 267.5,132.5C 266.833,132.5 266.167,132.5 265.5,132.5C 264.661,127.504 264.161,122.504 264,117.5C 264.878,120.257 265.878,122.924 267,125.5C 270.28,121.342 272.613,116.675 274,111.5C 276.781,98.6869 273.614,87.6869 264.5,78.5C 265.209,77.596 266.209,77.2627 267.5,77.5 Z"/></g>
<g><path style="opacity:0.855" fill="#f6b986" d="M 504.5,79.5 C 504.5,79.8333 504.5,80.1667 504.5,80.5C 501.237,81.4822 497.903,82.1489 494.5,82.5C 497.55,80.8993 500.884,79.8993 504.5,79.5 Z"/></g>
<g><path style="opacity:1" fill="#f08e2c" d="M 504.5,80.5 C 508.088,86.0872 513.088,89.7538 519.5,91.5C 526.108,90.8974 528.108,87.5641 525.5,81.5C 526.167,81.5 526.833,81.5 527.5,81.5C 529.553,81.4021 531.22,82.0687 532.5,83.5C 532.973,84.9063 533.973,85.573 535.5,85.5C 536.5,85.8333 537.167,86.5 537.5,87.5C 538.331,90.659 539.331,93.659 540.5,96.5C 540.5,96.8333 540.5,97.1667 540.5,97.5C 540.5,99.1667 540.5,100.833 540.5,102.5C 526.99,102.171 513.656,102.504 500.5,103.5C 499.532,105.607 499.198,107.941 499.5,110.5C 498.532,112.607 498.198,114.941 498.5,117.5C 497.833,116.833 497.167,116.167 496.5,115.5C 494.626,110.303 493.292,110.636 492.5,116.5C 491.039,118.352 490.039,120.518 489.5,123C 489.639,124.301 490.305,125.134 491.5,125.5C 492.287,127.104 493.62,127.771 495.5,127.5C 496.514,128.674 497.847,129.34 499.5,129.5C 500.609,129.557 501.609,129.89 502.5,130.5C 502.643,132.262 502.309,133.929 501.5,135.5C 508.124,138.042 514.791,138.042 521.5,135.5C 522.713,135.253 523.38,134.586 523.5,133.5C 525.833,133.5 528.167,133.5 530.5,133.5C 531.306,134.728 532.306,135.728 533.5,136.5C 533.5,142.833 533.5,149.167 533.5,155.5C 520.449,161.912 506.782,163.912 492.5,161.5C 492.167,160.833 491.833,160.167 491.5,159.5C 493.943,154.5 495.61,149.166 496.5,143.5C 496.5,143.167 496.5,142.833 496.5,142.5C 498.213,141.365 498.88,139.698 498.5,137.5C 496.5,137.167 494.5,136.833 492.5,136.5C 490.898,134.926 488.898,134.259 486.5,134.5C 486.167,134.5 485.833,134.5 485.5,134.5C 484.713,132.896 483.38,132.229 481.5,132.5C 477.609,132.108 475.609,129.941 475.5,126C 477.175,118.844 479.508,112.011 482.5,105.5C 483.992,101.736 484.992,97.7359 485.5,93.5C 485.654,91.0301 486.654,89.0301 488.5,87.5C 490.167,86.5 491.5,85.1667 492.5,83.5C 492.842,82.6618 493.508,82.3284 494.5,82.5C 497.903,82.1489 501.237,81.4822 504.5,80.5 Z"/></g>
<g><path style="opacity:0.718" fill="#e99c9a" d="M 261.5,79.5 C 259.678,81.404 258.012,83.404 256.5,85.5C 256.629,82.1299 258.295,80.1299 261.5,79.5 Z"/></g>
<g><path style="opacity:0.765" fill="#f7c499" d="M 492.5,83.5 C 491.5,85.1667 490.167,86.5 488.5,87.5C 488.833,85.1667 490.167,83.8333 492.5,83.5 Z"/></g>
<g><path style="opacity:0.227" fill="#f8cda7" d="M 532.5,83.5 C 534.027,83.427 535.027,84.0937 535.5,85.5C 533.973,85.573 532.973,84.9063 532.5,83.5 Z"/></g>
<g><path style="opacity:1" fill="#eca887" d="M 84.5,62.5 C 88.5321,63.6937 91.5321,66.1937 93.5,70C 94.549,70.4922 95.549,70.3256 96.5,69.5C 96.8333,70.5 97.1667,71.5 97.5,72.5C 96.3448,75.0115 95.6781,77.6781 95.5,80.5C 95.2767,83.7842 94.6101,86.9509 93.5,90C 98.2299,91.8409 102.897,93.6743 107.5,95.5C 106.167,95.5 104.833,95.5 103.5,95.5C 101.4,93.7273 99.0665,93.394 96.5,94.5C 92.5908,102.585 86.4242,107.918 78,110.5C 71.8459,109.382 69.8459,105.715 72,99.5C 73.0395,97.2537 74.2062,95.087 75.5,93C 73.4817,92.4954 71.4817,91.9954 69.5,91.5C 69.5,91.1667 69.5,90.8333 69.5,90.5C 73.2288,91.7338 76.5621,91.0672 79.5,88.5C 74.2243,83.9432 71.8909,78.1099 72.5,71C 72.5039,68.6392 72.8373,66.4726 73.5,64.5C 73.5,65.5 73.5,66.5 73.5,67.5C 77.3599,66.3191 81.0266,64.6524 84.5,62.5 Z"/></g>
<g><path style="opacity:0.373" fill="#ecabaa" d="M 316.5,84.5 C 317.906,84.9731 318.573,85.9731 318.5,87.5C 317.094,87.0269 316.427,86.0269 316.5,84.5 Z"/></g>
<g><path style="opacity:1" fill="#d24647" d="M 61.5,86.5 C 63.0808,88.1417 63.7475,90.1417 63.5,92.5C 61.1857,97.4491 59.1857,102.449 57.5,107.5C 56.1667,105.167 54.8333,102.833 53.5,100.5C 55.0069,95.0352 57.6735,90.3686 61.5,86.5 Z"/></g>
<g><path style="opacity:1" fill="#4b4949" d="M 439.5,93.5 C 439.622,98.2318 439.122,102.898 438,107.5C 437.178,104.883 436.678,102.216 436.5,99.5C 429.789,99.713 423.123,99.3796 416.5,98.5C 416.664,101.187 416.497,103.854 416,106.5C 415.79,104.942 415.29,103.609 414.5,102.5C 414.335,99.1501 414.502,95.8168 415,92.5C 416.707,90.9625 418.207,89.2959 419.5,87.5C 425.645,85.901 431.645,86.401 437.5,89C 438.582,90.3297 439.249,91.8297 439.5,93.5 Z"/></g>
<g><path style="opacity:0.259" fill="#e79a98" d="M 256.5,85.5 C 254.939,93.3152 253.272,100.982 251.5,108.5C 251.791,100.4 253.457,92.7332 256.5,85.5 Z"/></g>
<g><path style="opacity:1" fill="#ce7071" d="M 61.5,86.5 C 64.0041,87.5839 66.3374,88.9172 68.5,90.5C 66.4862,90.3915 64.8195,91.0582 63.5,92.5C 63.7475,90.1417 63.0808,88.1417 61.5,86.5 Z"/></g>
<g><path style="opacity:1" fill="#3e3756" d="M 301.5,75.5 C 302.5,75.5 303.5,75.5 304.5,75.5C 311.56,84.6242 315.56,94.9575 316.5,106.5C 316.663,108.857 316.497,111.19 316,113.5C 315.79,111.942 315.29,110.609 314.5,109.5C 313.299,96.8854 308.965,85.5521 301.5,75.5 Z"/></g>
<g><path style="opacity:0.325" fill="#f7c398" d="M 537.5,87.5 C 539.862,89.919 540.862,92.919 540.5,96.5C 539.331,93.659 538.331,90.659 537.5,87.5 Z"/></g>
<g><path style="opacity:1" fill="#4a4764" d="M 68.5,90.5 C 68.8333,90.5 69.1667,90.5 69.5,90.5C 69.5,90.8333 69.5,91.1667 69.5,91.5C 64.6639,96.8054 61.8306,103.139 61,110.5C 60.5002,119.16 60.3336,127.827 60.5,136.5C 60.1667,136.5 59.8333,136.5 59.5,136.5C 57.9318,134.189 57.0984,131.522 57,128.5C 56.3766,121.477 56.5432,114.477 57.5,107.5C 59.1857,102.449 61.1857,97.4491 63.5,92.5C 64.8195,91.0582 66.4862,90.3915 68.5,90.5 Z"/></g>
<g><path style="opacity:1" fill="#d44041" d="M 69.5,91.5 C 71.4817,91.9954 73.4817,92.4954 75.5,93C 74.2062,95.087 73.0395,97.2537 72,99.5C 69.8459,105.715 71.8459,109.382 78,110.5C 86.4242,107.918 92.5908,102.585 96.5,94.5C 99.0665,93.394 101.4,93.7273 103.5,95.5C 95.2103,107.135 93.377,119.801 98,133.5C 99.5843,137.675 101.918,141.341 105,144.5C 105.49,145.793 105.657,147.127 105.5,148.5C 104.71,149.609 104.21,150.942 104,152.5C 103.5,158.825 103.334,165.158 103.5,171.5C 103.5,177.5 103.5,183.5 103.5,189.5C 97.4088,189.382 91.4088,188.549 85.5,187C 77.7186,184.275 70.3852,180.775 63.5,176.5C 61.8333,175.167 60.1667,173.833 58.5,172.5C 58.8333,165.833 59.1667,159.167 59.5,152.5C 59.19,149.287 59.5233,146.287 60.5,143.5C 61.8333,141.167 61.8333,138.833 60.5,136.5C 60.3336,127.827 60.5002,119.16 61,110.5C 61.8306,103.139 64.6639,96.8054 69.5,91.5 Z"/></g>
<g><path style="opacity:0.746" fill="#888888" d="M 419.5,87.5 C 418.207,89.2959 416.707,90.9625 415,92.5C 414.502,95.8168 414.335,99.1501 414.5,102.5C 414.167,102.5 413.833,102.5 413.5,102.5C 413.335,98.8183 413.501,95.1516 414,91.5C 415.451,89.5359 417.284,88.2026 419.5,87.5 Z"/></g>
<g><path style="opacity:0.82" fill="#f5b7a5" d="M 201.5,95.5 C 204.293,94.254 206.96,94.5873 209.5,96.5C 206.833,96.1667 204.167,95.8333 201.5,95.5 Z"/></g>
<g><path style="opacity:1" fill="#e97651" d="M 201.5,95.5 C 204.167,95.8333 206.833,96.1667 209.5,96.5C 213.833,97.5 216.5,100.167 217.5,104.5C 218.729,109.742 217.063,113.575 212.5,116C 209.132,117.551 205.632,118.717 202,119.5C 200.667,118.167 199.333,116.833 198,115.5C 194.927,117.566 194.761,120.066 197.5,123C 197.754,128.098 197.421,133.265 196.5,138.5C 195.5,138.5 194.5,138.5 193.5,138.5C 192.541,134.617 191.208,130.95 189.5,127.5C 189.414,123.143 189.08,118.81 188.5,114.5C 188.119,107.974 190.119,102.307 194.5,97.5C 196.618,96.0541 198.951,95.3874 201.5,95.5 Z"/></g>
<g><path style="opacity:1" fill="#d34243" d="M 108.5,96.5 C 113.906,98.2406 117.239,101.907 118.5,107.5C 119.114,111.135 119.448,114.802 119.5,118.5C 115.206,118.577 111.039,119.244 107,120.5C 107.298,124.241 108.131,127.908 109.5,131.5C 108.77,134.578 107.603,137.578 106,140.5C 98.0393,130.165 96.3727,118.832 101,106.5C 102.791,102.561 105.291,99.228 108.5,96.5 Z"/></g>
<g><path style="opacity:0.778" fill="#f6ba89" d="M 485.5,93.5 C 484.992,97.7359 483.992,101.736 482.5,105.5C 482.502,101.126 483.502,97.1259 485.5,93.5 Z"/></g>
<g><path style="opacity:1" fill="#eaa989" d="M 439.5,93.5 C 441.713,103.279 440.213,112.612 435,121.5C 434.505,123.473 434.338,125.473 434.5,127.5C 433.945,137.39 429.279,140.057 420.5,135.5C 418.37,132.663 418.037,129.663 419.5,126.5C 417.107,119.115 414.773,111.615 412.5,104C 412.57,103.235 412.903,102.735 413.5,102.5C 413.833,102.5 414.167,102.5 414.5,102.5C 415.29,103.609 415.79,104.942 416,106.5C 416.497,103.854 416.664,101.187 416.5,98.5C 423.123,99.3796 429.789,99.713 436.5,99.5C 436.678,102.216 437.178,104.883 438,107.5C 439.122,102.898 439.622,98.2318 439.5,93.5 Z"/></g>
<g><path style="opacity:1" fill="#5988c9" d="M 500.5,103.5 C 508.833,103.5 517.167,103.5 525.5,103.5C 525.205,105.735 525.539,107.735 526.5,109.5C 532.69,109.177 538.69,109.51 544.5,110.5C 529.833,110.5 515.167,110.5 500.5,110.5C 500.5,108.167 500.5,105.833 500.5,103.5 Z"/></g>
<g><path style="opacity:1" fill="#c5afbe" d="M 540.5,97.5 C 541.451,98.9187 541.784,100.585 541.5,102.5C 542.5,102.5 543.5,102.5 544.5,102.5C 538.926,104.453 532.926,105.12 526.5,104.5C 526.5,106.167 526.5,107.833 526.5,109.5C 525.539,107.735 525.205,105.735 525.5,103.5C 517.167,103.5 508.833,103.5 500.5,103.5C 513.656,102.504 526.99,102.171 540.5,102.5C 540.5,100.833 540.5,99.1667 540.5,97.5 Z"/></g>
<g><path style="opacity:1" fill="#f7e5e0" d="M 544.5,102.5 C 545.473,104.948 545.806,107.615 545.5,110.5C 545.167,110.5 544.833,110.5 544.5,110.5C 538.69,109.51 532.69,109.177 526.5,109.5C 526.5,107.833 526.5,106.167 526.5,104.5C 532.926,105.12 538.926,104.453 544.5,102.5 Z"/></g>
<g><path style="opacity:1" fill="#cb6a7a" d="M 500.5,110.5 C 515.167,110.5 529.833,110.5 544.5,110.5C 544.833,110.5 545.167,110.5 545.5,110.5C 546.167,110.5 546.5,110.833 546.5,111.5C 535.833,111.5 525.167,111.5 514.5,111.5C 514.5,113.5 514.5,115.5 514.5,117.5C 514.167,117.5 513.833,117.5 513.5,117.5C 513.5,115.5 513.5,113.5 513.5,111.5C 508.968,111.818 504.634,111.485 500.5,110.5 Z"/></g>
<g><path style="opacity:0.867" fill="#e79594" d="M 329.5,108.5 C 337.256,110.513 344.923,112.513 352.5,114.5C 345.413,113.683 338.413,112.349 331.5,110.5C 330.287,110.253 329.62,109.586 329.5,108.5 Z"/></g>
<g><path style="opacity:1" fill="#c34c4b" d="M 500.5,103.5 C 500.5,105.833 500.5,108.167 500.5,110.5C 504.634,111.485 508.968,111.818 513.5,111.5C 513.5,113.5 513.5,115.5 513.5,117.5C 508.833,117.5 504.167,117.5 499.5,117.5C 499.5,115.167 499.5,112.833 499.5,110.5C 499.198,107.941 499.532,105.607 500.5,103.5 Z"/></g>
<g><path style="opacity:1" fill="#f9e2dc" d="M 546.5,111.5 C 546.5,113.5 546.5,115.5 546.5,117.5C 535.833,117.5 525.167,117.5 514.5,117.5C 514.5,115.5 514.5,113.5 514.5,111.5C 525.167,111.5 535.833,111.5 546.5,111.5 Z"/></g>
<g><path style="opacity:1" fill="#eba886" d="M 217.5,104.5 C 218.455,106.283 219.122,108.283 219.5,110.5C 217.439,116.591 218.939,121.591 224,125.5C 224.236,127.845 225.07,129.845 226.5,131.5C 225.448,131.351 224.448,131.517 223.5,132C 221.963,133.707 220.296,135.207 218.5,136.5C 217.089,135.092 215.423,134.092 213.5,133.5C 211.675,134.651 209.675,135.318 207.5,135.5C 207.537,138.702 209.203,140.368 212.5,140.5C 215.207,149.628 211.873,153.128 202.5,151C 200.922,149.906 199.255,149.072 197.5,148.5C 194.436,145.43 191.103,142.763 187.5,140.5C 188.919,139.549 190.585,139.216 192.5,139.5C 191.095,135.615 190.095,131.615 189.5,127.5C 191.208,130.95 192.541,134.617 193.5,138.5C 194.5,138.5 195.5,138.5 196.5,138.5C 197.421,133.265 197.754,128.098 197.5,123C 194.761,120.066 194.927,117.566 198,115.5C 199.333,116.833 200.667,118.167 202,119.5C 205.632,118.717 209.132,117.551 212.5,116C 217.063,113.575 218.729,109.742 217.5,104.5 Z"/></g>
<g><path style="opacity:0.878" fill="#e5908e" d="M 317.5,114.5 C 320.089,115.419 322.089,117.086 323.5,119.5C 320.911,118.581 318.911,116.914 317.5,114.5 Z"/></g>
<g><path style="opacity:1" fill="#efb296" d="M 351.5,124.5 C 353.288,124.785 354.955,124.452 356.5,123.5C 357.859,120.806 358.192,118.139 357.5,115.5C 360.658,113.319 363.825,110.986 367,108.5C 367.692,109.025 368.192,109.692 368.5,110.5C 367.352,112.149 366.019,113.649 364.5,115C 368.795,115.912 373.128,116.579 377.5,117C 378.308,117.308 378.975,117.808 379.5,118.5C 378.271,119.281 376.938,119.781 375.5,120C 377.436,120.813 379.436,121.313 381.5,121.5C 381.52,123.143 380.853,124.476 379.5,125.5C 377.5,126.5 375.5,127.5 373.5,128.5C 368.175,127.213 363.008,125.546 358,123.5C 356.03,125.668 353.863,126.002 351.5,124.5 Z"/></g>
<g><path style="opacity:0.29" fill="#f8c89f" d="M 496.5,115.5 C 494.805,114.174 493.472,114.507 492.5,116.5C 493.292,110.636 494.626,110.303 496.5,115.5 Z"/></g>
<g><path style="opacity:0.478" fill="#c37c83" d="M 316.5,106.5 C 317.473,108.948 317.806,111.615 317.5,114.5C 316.883,114.611 316.383,114.944 316,115.5C 315.391,120.861 315.558,126.195 316.5,131.5C 315.732,130.737 315.232,129.737 315,128.5C 314.5,122.175 314.334,115.842 314.5,109.5C 315.29,110.609 315.79,111.942 316,113.5C 316.497,111.19 316.663,108.857 316.5,106.5 Z"/></g>
<g><path style="opacity:1" fill="#e36d4f" d="M 499.5,110.5 C 499.5,112.833 499.5,115.167 499.5,117.5C 504.167,117.5 508.833,117.5 513.5,117.5C 513.833,117.5 514.167,117.5 514.5,117.5C 525.167,117.5 535.833,117.5 546.5,117.5C 545.432,118.434 544.099,118.768 542.5,118.5C 531.5,118.5 520.5,118.5 509.5,118.5C 505.833,118.5 502.167,118.5 498.5,118.5C 498.5,118.167 498.5,117.833 498.5,117.5C 498.198,114.941 498.532,112.607 499.5,110.5 Z"/></g>
<g><path style="opacity:1" fill="#efb07b" d="M 496.5,115.5 C 497.167,116.167 497.833,116.833 498.5,117.5C 498.5,117.833 498.5,118.167 498.5,118.5C 497.5,118.5 496.5,118.5 495.5,118.5C 495.5,120.833 495.5,123.167 495.5,125.5C 496.5,125.5 497.5,125.5 498.5,125.5C 498.5,125.833 498.5,126.167 498.5,126.5C 497.209,126.263 496.209,126.596 495.5,127.5C 493.62,127.771 492.287,127.104 491.5,125.5C 492.496,125.414 493.329,125.748 494,126.5C 494.769,123.901 494.602,121.401 493.5,119C 495.063,118.241 496.063,117.074 496.5,115.5 Z"/></g>
<g><path style="opacity:1" fill="#e58e37" d="M 498.5,118.5 C 502.167,118.5 505.833,118.5 509.5,118.5C 509.5,120.833 509.5,123.167 509.5,125.5C 505.833,125.5 502.167,125.5 498.5,125.5C 497.5,125.5 496.5,125.5 495.5,125.5C 495.5,123.167 495.5,120.833 495.5,118.5C 496.5,118.5 497.5,118.5 498.5,118.5 Z"/></g>
<g><path style="opacity:1" fill="#eead8e" d="M 118.5,107.5 C 120.236,113.891 121.736,120.225 123,126.5C 129.718,141.609 137.718,155.942 147,169.5C 151.2,170.505 155.034,172.171 158.5,174.5C 156.5,175.167 154.5,175.833 152.5,176.5C 154.443,180.053 156.11,183.719 157.5,187.5C 156.5,189.5 155.5,191.5 154.5,193.5C 153.268,192.855 151.935,192.689 150.5,193C 149.809,191.933 149.309,190.766 149,189.5C 148,190.833 147,190.833 146,189.5C 144.131,184.228 142.465,178.894 141,173.5C 133.967,165.636 126.8,157.969 119.5,150.5C 119.737,149.209 119.404,148.209 118.5,147.5C 114.473,142.783 111.473,137.449 109.5,131.5C 108.131,127.908 107.298,124.241 107,120.5C 111.039,119.244 115.206,118.577 119.5,118.5C 119.448,114.802 119.114,111.135 118.5,107.5 Z"/></g>
<g><path style="opacity:0.733" fill="#f6bb89" d="M 492.5,116.5 C 492.335,118.827 491.669,120.993 490.5,123C 491.252,123.671 491.586,124.504 491.5,125.5C 490.305,125.134 489.639,124.301 489.5,123C 490.039,120.518 491.039,118.352 492.5,116.5 Z"/></g>
<g><path style="opacity:1" fill="#f9e4df" d="M 542.5,119.5 C 542.5,121.167 542.5,122.833 542.5,124.5C 531.833,124.5 521.167,124.5 510.5,124.5C 510.5,122.833 510.5,121.167 510.5,119.5C 521.167,119.5 531.833,119.5 542.5,119.5 Z"/></g>
<g><path style="opacity:0.114" fill="#efb3b4" d="M 323.5,119.5 C 325.786,119.595 327.786,120.262 329.5,121.5C 327.102,121.741 325.102,121.074 323.5,119.5 Z"/></g>
<g><path style="opacity:0.69" fill="#f5baa8" d="M 188.5,114.5 C 189.08,118.81 189.414,123.143 189.5,127.5C 188.567,124.358 187.901,121.024 187.5,117.5C 187.52,116.274 187.853,115.274 188.5,114.5 Z"/></g>
<g><path style="opacity:1" fill="#4c4450" d="M 216.5,122.5 C 222.997,124.217 223.663,126.883 218.5,130.5C 217.098,130.135 216.098,129.301 215.5,128C 216.233,126.234 216.567,124.401 216.5,122.5 Z"/></g>
<g><path style="opacity:0.616" fill="#e59893" d="M 251.5,120.5 C 252.957,126.681 254.291,133.015 255.5,139.5C 255.5,141.167 255.5,142.833 255.5,144.5C 253.548,136.722 252.215,128.722 251.5,120.5 Z"/></g>
<g><path style="opacity:0.49" fill="#e59393" d="M 338.5,122.5 C 343.076,122.438 347.409,123.105 351.5,124.5C 346.924,124.562 342.591,123.895 338.5,122.5 Z"/></g>
<g><path style="opacity:1" fill="#fbc6a5" d="M 509.5,118.5 C 520.5,118.5 531.5,118.5 542.5,118.5C 542.5,118.833 542.5,119.167 542.5,119.5C 531.833,119.5 521.167,119.5 510.5,119.5C 510.5,121.167 510.5,122.833 510.5,124.5C 521.167,124.5 531.833,124.5 542.5,124.5C 542.5,124.833 542.5,125.167 542.5,125.5C 531.5,125.5 520.5,125.5 509.5,125.5C 509.5,123.167 509.5,120.833 509.5,118.5 Z"/></g>
<g><path style="opacity:1" fill="#98b476" d="M 498.5,125.5 C 502.167,125.5 505.833,125.5 509.5,125.5C 520.5,125.5 531.5,125.5 542.5,125.5C 544.099,125.232 545.432,125.566 546.5,126.5C 535.833,126.5 525.167,126.5 514.5,126.5C 514.5,128.5 514.5,130.5 514.5,132.5C 513.127,132.657 511.793,132.49 510.5,132C 511.942,131.623 512.942,130.79 513.5,129.5C 513.5,128.5 513.5,127.5 513.5,126.5C 508.833,126.5 504.167,126.5 499.5,126.5C 499.5,127.5 499.5,128.5 499.5,129.5C 497.847,129.34 496.514,128.674 495.5,127.5C 496.791,127.737 497.791,127.404 498.5,126.5C 498.5,126.167 498.5,125.833 498.5,125.5 Z"/></g>
<g><path style="opacity:1" fill="#5ea466" d="M 513.5,129.5 C 510.164,129.467 506.997,130.134 504,131.5C 503.617,130.944 503.117,130.611 502.5,130.5C 501.609,129.89 500.609,129.557 499.5,129.5C 499.5,128.5 499.5,127.5 499.5,126.5C 504.167,126.5 508.833,126.5 513.5,126.5C 513.5,127.5 513.5,128.5 513.5,129.5 Z"/></g>
<g><path style="opacity:0.994" fill="#e8d8cd" d="M 546.5,126.5 C 546.575,129.206 546.908,131.873 547.5,134.5C 546.5,134.5 545.5,134.5 544.5,134.5C 544.918,133.778 545.584,133.278 546.5,133C 542.146,130.609 537.479,129.942 532.5,131C 531.619,131.708 530.953,132.542 530.5,133.5C 528.167,133.5 525.833,133.5 523.5,133.5C 520.43,133.632 517.43,133.299 514.5,132.5C 514.5,130.5 514.5,128.5 514.5,126.5C 525.167,126.5 535.833,126.5 546.5,126.5 Z"/></g>
<g><path style="opacity:1" fill="#f97144" d="M 413.5,129.5 C 414.5,129.5 415.5,129.5 416.5,129.5C 416.177,136.511 419.511,139.844 426.5,139.5C 432.629,139.873 436.296,137.039 437.5,131C 439.797,130.982 442.131,131.149 444.5,131.5C 444.833,131.5 445.167,131.5 445.5,131.5C 448.335,133.785 451.668,135.118 455.5,135.5C 460.03,139.885 463.03,145.218 464.5,151.5C 465.115,156.048 466.781,160.048 469.5,163.5C 469.5,163.833 469.5,164.167 469.5,164.5C 471.494,171.483 473.494,178.483 475.5,185.5C 474.22,186.931 472.553,187.598 470.5,187.5C 469.209,187.263 468.209,187.596 467.5,188.5C 457.876,191.708 448.21,194.708 438.5,197.5C 436.905,194.715 435.905,191.715 435.5,188.5C 444.52,185.882 453.187,182.382 461.5,178C 456.833,169.667 452.167,161.333 447.5,153C 439.546,154.264 431.88,156.43 424.5,159.5C 423.5,159.5 422.5,159.5 421.5,159.5C 421.846,162.885 422.512,166.218 423.5,169.5C 422.963,170.741 422.296,171.908 421.5,173C 423.282,177.725 424.616,182.558 425.5,187.5C 424.761,187.369 424.094,187.536 423.5,188C 423.165,192.186 423.832,196.353 425.5,200.5C 427.554,200.365 429.221,201.032 430.5,202.5C 431.5,206.501 432.5,210.501 433.5,214.5C 434.791,214.737 435.791,214.404 436.5,213.5C 441.783,211.961 447.116,210.628 452.5,209.5C 452.5,210.167 452.5,210.833 452.5,211.5C 452.5,213.833 452.5,216.167 452.5,218.5C 451.508,218.328 450.842,218.662 450.5,219.5C 435.219,224.187 419.886,224.521 404.5,220.5C 405.019,204.252 404.019,188.252 401.5,172.5C 401.5,171.5 401.5,170.5 401.5,169.5C 401.662,167.473 401.495,165.473 401,163.5C 399.451,166.312 398.618,169.312 398.5,172.5C 397.801,177.272 396.134,181.605 393.5,185.5C 384.918,186.47 376.251,186.803 367.5,186.5C 363.629,186.815 359.962,186.482 356.5,185.5C 356.423,181.785 356.756,178.119 357.5,174.5C 362.13,175.229 366.797,175.563 371.5,175.5C 375.226,175.823 378.893,175.489 382.5,174.5C 383.028,172.664 383.694,170.997 384.5,169.5C 386.258,166.146 387.258,162.479 387.5,158.5C 388.924,156.485 389.59,154.152 389.5,151.5C 391.277,148.495 392.277,145.162 392.5,141.5C 392.712,138.288 394.379,136.288 397.5,135.5C 399.967,135.245 401.967,134.245 403.5,132.5C 406.505,130.723 409.838,129.723 413.5,129.5 Z"/></g>
<g><path style="opacity:1" fill="#8e523a" d="M 513.5,129.5 C 512.942,130.79 511.942,131.623 510.5,132C 511.793,132.49 513.127,132.657 514.5,132.5C 517.43,133.299 520.43,133.632 523.5,133.5C 523.38,134.586 522.713,135.253 521.5,135.5C 514.791,138.042 508.124,138.042 501.5,135.5C 502.309,133.929 502.643,132.262 502.5,130.5C 503.117,130.611 503.617,130.944 504,131.5C 506.997,130.134 510.164,129.467 513.5,129.5 Z"/></g>
<g><path style="opacity:1" fill="#8f523d" d="M 544.5,134.5 C 544.167,135.167 543.833,135.833 543.5,136.5C 540.167,136.5 536.833,136.5 533.5,136.5C 532.306,135.728 531.306,134.728 530.5,133.5C 530.953,132.542 531.619,131.708 532.5,131C 537.479,129.942 542.146,130.609 546.5,133C 545.584,133.278 544.918,133.778 544.5,134.5 Z"/></g>
<g><path style="opacity:1" fill="#e9754f" d="M 218.5,136.5 C 218.557,137.609 218.89,138.609 219.5,139.5C 219.5,140.833 219.5,142.167 219.5,143.5C 217.046,142.773 214.713,141.773 212.5,140.5C 209.203,140.368 207.537,138.702 207.5,135.5C 209.675,135.318 211.675,134.651 213.5,133.5C 215.423,134.092 217.089,135.092 218.5,136.5 Z"/></g>
<g><path style="opacity:1" fill="#e3694a" d="M 265.5,132.5 C 266.167,132.5 266.833,132.5 267.5,132.5C 269.373,136.89 269.873,141.556 269,146.5C 267.516,141.899 266.35,137.232 265.5,132.5 Z"/></g>
<g><path style="opacity:0.69" fill="#fcb19b" d="M 445.5,131.5 C 449.149,132.267 452.482,133.6 455.5,135.5C 451.668,135.118 448.335,133.785 445.5,131.5 Z"/></g>
<g><path style="opacity:0.31" fill="#f9d3b0" d="M 481.5,132.5 C 483.38,132.229 484.713,132.896 485.5,134.5C 483.847,134.34 482.514,133.674 481.5,132.5 Z"/></g>
<g><path style="opacity:1" fill="#3c3956" d="M 103.5,95.5 C 104.833,95.5 106.167,95.5 107.5,95.5C 108.167,95.5 108.5,95.8333 108.5,96.5C 105.291,99.228 102.791,102.561 101,106.5C 96.3727,118.832 98.0393,130.165 106,140.5C 107.603,137.578 108.77,134.578 109.5,131.5C 111.473,137.449 114.473,142.783 118.5,147.5C 114.143,147.586 109.81,147.92 105.5,148.5C 105.657,147.127 105.49,145.793 105,144.5C 101.918,141.341 99.5843,137.675 98,133.5C 93.377,119.801 95.2103,107.135 103.5,95.5 Z"/></g>
<g><path style="opacity:0.78" fill="#fca991" d="M 403.5,132.5 C 401.967,134.245 399.967,135.245 397.5,135.5C 399.033,133.755 401.033,132.755 403.5,132.5 Z"/></g>
<g><path style="opacity:1" fill="#f6ba88" d="M 486.5,134.5 C 488.898,134.259 490.898,134.926 492.5,136.5C 490.214,136.405 488.214,135.738 486.5,134.5 Z"/></g>
<g><path style="opacity:1" fill="#f0ccbe" d="M 419.5,126.5 C 418.037,129.663 418.37,132.663 420.5,135.5C 429.279,140.057 433.945,137.39 434.5,127.5C 437.908,128.842 441.241,130.175 444.5,131.5C 442.131,131.149 439.797,130.982 437.5,131C 436.296,137.039 432.629,139.873 426.5,139.5C 419.511,139.844 416.177,136.511 416.5,129.5C 415.5,129.5 414.5,129.5 413.5,129.5C 415.588,128.799 417.588,127.799 419.5,126.5 Z"/></g>
<g><path style="opacity:0.635" fill="#d48283" d="M 59.5,136.5 C 59.8333,136.5 60.1667,136.5 60.5,136.5C 61.8333,138.833 61.8333,141.167 60.5,143.5C 60.702,141.05 60.3686,138.717 59.5,136.5 Z"/></g>
<g><path style="opacity:0.604" fill="#f8c296" d="M 492.5,136.5 C 494.5,136.833 496.5,137.167 498.5,137.5C 498.88,139.698 498.213,141.365 496.5,142.5C 496.539,141.417 496.873,140.417 497.5,139.5C 495.64,138.675 493.974,137.675 492.5,136.5 Z"/></g>
<g><path style="opacity:0.592" fill="#e5b38f" d="M 533.5,136.5 C 536.833,136.5 540.167,136.5 543.5,136.5C 540.713,137.477 537.713,137.81 534.5,137.5C 534.5,143.5 534.5,149.5 534.5,155.5C 534.167,155.5 533.833,155.5 533.5,155.5C 533.5,149.167 533.5,142.833 533.5,136.5 Z"/></g>
<g><path style="opacity:0.012" fill="#feeabd" d="M 236.5,141.5 C 239.764,143.094 242.431,145.427 244.5,148.5C 241.236,146.906 238.569,144.573 236.5,141.5 Z"/></g>
<g><path style="opacity:1" fill="#fbc758" d="M 184.5,141.5 C 190.764,144.596 195.598,149.263 199,155.5C 202.144,160.765 203.977,166.431 204.5,172.5C 204.5,177.167 204.5,181.833 204.5,186.5C 202.5,186.833 200.5,187.167 198.5,187.5C 197.992,190.176 197.825,192.843 198,195.5C 199.518,196.163 200.685,197.163 201.5,198.5C 196.938,204.035 190.938,206.701 183.5,206.5C 183.895,203.314 184.895,200.314 186.5,197.5C 181.261,196.012 175.927,195.012 170.5,194.5C 167.951,194.613 165.618,193.946 163.5,192.5C 162.343,189.216 162.176,185.882 163,182.5C 167.002,170.471 171.002,158.471 175,146.5C 177.552,143.641 180.719,141.974 184.5,141.5 Z"/></g>
<g><path style="opacity:1" fill="#fbc858" d="M 226.5,131.5 C 230.167,134.5 233.5,137.833 236.5,141.5C 238.569,144.573 241.236,146.906 244.5,148.5C 249.722,152.798 249.722,157.298 244.5,162C 243.127,162.875 241.627,163.375 240,163.5C 235.995,163.008 232.162,162.341 228.5,161.5C 228.704,156.389 226.537,152.056 222,148.5C 222.732,151.299 224.066,153.966 226,156.5C 226.494,158.134 226.66,159.801 226.5,161.5C 226.483,165.534 225.483,169.201 223.5,172.5C 222.778,172.918 222.278,173.584 222,174.5C 220.846,189.145 220.346,203.811 220.5,218.5C 207.825,224.501 194.492,226.835 180.5,225.5C 180.158,224.662 179.492,224.328 178.5,224.5C 177.903,224.265 177.57,223.765 177.5,223C 178.249,220.503 178.916,218.003 179.5,215.5C 180.578,213.461 181.578,211.294 182.5,209C 191.307,209.574 198.307,206.408 203.5,199.5C 205.379,198.659 207.379,198.325 209.5,198.5C 210.376,195.201 210.543,191.868 210,188.5C 209.005,187.934 208.172,187.267 207.5,186.5C 208.535,172.638 205.202,159.972 197.5,148.5C 199.255,149.072 200.922,149.906 202.5,151C 211.873,153.128 215.207,149.628 212.5,140.5C 214.713,141.773 217.046,142.773 219.5,143.5C 219.833,143.5 220.167,143.5 220.5,143.5C 221.167,143.5 221.5,143.833 221.5,144.5C 223.516,146.227 225.849,147.061 228.5,147C 227.529,145.519 226.196,144.685 224.5,144.5C 224.167,143.833 223.833,143.167 223.5,142.5C 222.738,140.738 221.404,139.738 219.5,139.5C 218.89,138.609 218.557,137.609 218.5,136.5C 220.296,135.207 221.963,133.707 223.5,132C 224.448,131.517 225.448,131.351 226.5,131.5 Z M 223.5,142.5 C 223.833,143.167 224.167,143.833 224.5,144.5C 223.5,144.5 222.5,144.5 221.5,144.5C 221.5,143.833 221.167,143.5 220.5,143.5C 220.369,142.761 220.536,142.094 221,141.5C 221.671,142.252 222.504,142.586 223.5,142.5 Z"/></g>
<g><path style="opacity:0.702" fill="#f6c5a9" d="M 219.5,139.5 C 221.404,139.738 222.738,140.738 223.5,142.5C 222.504,142.586 221.671,142.252 221,141.5C 220.536,142.094 220.369,142.761 220.5,143.5C 220.167,143.5 219.833,143.5 219.5,143.5C 219.5,142.167 219.5,140.833 219.5,139.5 Z"/></g>
<g><path style="opacity:1" fill="#e8876e" d="M 255.5,139.5 C 257.499,146.142 259.499,152.808 261.5,159.5C 258.16,155.136 256.16,150.136 255.5,144.5C 255.5,142.833 255.5,141.167 255.5,139.5 Z"/></g>
<g><path style="opacity:0.969" fill="#fdaf98" d="M 392.5,141.5 C 392.277,145.162 391.277,148.495 389.5,151.5C 389.723,147.838 390.723,144.505 392.5,141.5 Z"/></g>
<g><path style="opacity:0.094" fill="#fee7b6" d="M 221.5,144.5 C 222.5,144.5 223.5,144.5 224.5,144.5C 226.196,144.685 227.529,145.519 228.5,147C 225.849,147.061 223.516,146.227 221.5,144.5 Z"/></g>
<g><path style="opacity:0.996" fill="#f6b988" d="M 496.5,143.5 C 495.61,149.166 493.943,154.5 491.5,159.5C 492.39,153.834 494.057,148.5 496.5,143.5 Z"/></g>
<g><path style="opacity:1" fill="#9a9feb" d="M 118.5,147.5 C 119.404,148.209 119.737,149.209 119.5,150.5C 118.742,156.208 117.575,161.874 116,167.5C 112.613,171.039 108.447,172.372 103.5,171.5C 103.334,165.158 103.5,158.825 104,152.5C 104.21,150.942 104.71,149.609 105.5,148.5C 109.81,147.92 114.143,147.586 118.5,147.5 Z"/></g>
<g><path style="opacity:0.424" fill="#e2a1a0" d="M 318.5,145.5 C 319.532,150.341 319.532,155.341 318.5,160.5C 318.167,160.5 317.833,160.5 317.5,160.5C 317.5,158.833 317.5,157.167 317.5,155.5C 318.414,152.272 318.747,148.939 318.5,145.5 Z"/></g>
<g><path style="opacity:1" fill="#5c8bd5" d="M 435.5,188.5 C 434.209,188.737 433.209,188.404 432.5,187.5C 429.833,178.167 427.167,168.833 424.5,159.5C 431.88,156.43 439.546,154.264 447.5,153C 452.167,161.333 456.833,169.667 461.5,178C 453.187,182.382 444.52,185.882 435.5,188.5 Z"/></g>
<g><path style="opacity:0.933" fill="#fcab94" d="M 389.5,151.5 C 389.59,154.152 388.924,156.485 387.5,158.5C 387.41,155.848 388.076,153.515 389.5,151.5 Z"/></g>
<g><path style="opacity:1" fill="#b43837" d="M 317.5,155.5 C 317.5,157.167 317.5,158.833 317.5,160.5C 303.872,165.216 289.872,168.216 275.5,169.5C 275.5,167.833 275.5,166.167 275.5,164.5C 289.903,163.286 303.903,160.286 317.5,155.5 Z"/></g>
<g><path style="opacity:1" fill="#2b2c4a" d="M 533.5,155.5 C 533.595,157.786 534.262,159.786 535.5,161.5C 535.41,164.152 536.076,166.485 537.5,168.5C 538.404,169.209 538.737,170.209 538.5,171.5C 538.742,175.479 539.742,179.146 541.5,182.5C 542.565,189.427 544.232,196.094 546.5,202.5C 546.508,205.545 546.841,208.545 547.5,211.5C 542.03,212.768 536.696,214.435 531.5,216.5C 526.34,218.265 521.007,219.265 515.5,219.5C 512.098,219.342 508.764,219.676 505.5,220.5C 500.859,221.127 496.193,221.46 491.5,221.5C 489.833,221.5 488.167,221.5 486.5,221.5C 486.5,215.833 486.5,210.167 486.5,204.5C 486.361,196.618 487.028,188.951 488.5,181.5C 489.709,177.382 490.376,173.049 490.5,168.5C 490.517,166.435 490.85,164.435 491.5,162.5C 492.167,162.5 492.5,162.167 492.5,161.5C 506.782,163.912 520.449,161.912 533.5,155.5 Z"/></g>
<g><path style="opacity:1" fill="#caa248" d="M 228.5,161.5 C 227.833,161.5 227.167,161.5 226.5,161.5C 226.66,159.801 226.494,158.134 226,156.5C 224.066,153.966 222.732,151.299 222,148.5C 226.537,152.056 228.704,156.389 228.5,161.5 Z"/></g>
<g><path style="opacity:0.49" fill="#fcb39e" d="M 464.5,151.5 C 466.679,155.203 468.345,159.203 469.5,163.5C 466.781,160.048 465.115,156.048 464.5,151.5 Z"/></g>
<g><path style="opacity:1" fill="#ebaa8a" d="M 275.5,164.5 C 275.5,166.167 275.5,167.833 275.5,169.5C 275.213,172.484 273.546,173.817 270.5,173.5C 267.998,174.779 265.498,174.779 263,173.5C 261.691,168.934 261.191,164.267 261.5,159.5C 262.151,160.091 262.818,160.757 263.5,161.5C 265.88,160.206 268.38,159.206 271,158.5C 272.755,160.358 274.255,162.358 275.5,164.5 Z"/></g>
<g><path style="opacity:0.239" fill="#9998a4" d="M 533.5,155.5 C 533.833,155.5 534.167,155.5 534.5,155.5C 535.15,157.435 535.483,159.435 535.5,161.5C 534.262,159.786 533.595,157.786 533.5,155.5 Z"/></g>
<g><path style="opacity:1" fill="#e2cfcb" d="M 424.5,159.5 C 427.167,168.833 429.833,178.167 432.5,187.5C 430.167,187.5 427.833,187.5 425.5,187.5C 424.616,182.558 423.282,177.725 421.5,173C 422.296,171.908 422.963,170.741 423.5,169.5C 422.512,166.218 421.846,162.885 421.5,159.5C 422.5,159.5 423.5,159.5 424.5,159.5 Z"/></g>
<g><path style="opacity:0.008" fill="#efdfcc" d="M 491.5,159.5 C 491.833,160.167 492.167,160.833 492.5,161.5C 492.5,162.167 492.167,162.5 491.5,162.5C 490.375,161.348 490.375,160.348 491.5,159.5 Z"/></g>
<g><path style="opacity:1" fill="#2d2d4b" d="M 317.5,160.5 C 317.833,160.5 318.167,160.5 318.5,160.5C 319.43,164.4 319.763,168.4 319.5,172.5C 319.45,178.389 320.116,184.056 321.5,189.5C 322.106,200.061 323.439,210.395 325.5,220.5C 325.616,228.693 326.283,236.693 327.5,244.5C 327.5,246.167 327.5,247.833 327.5,249.5C 327.5,264.833 327.5,280.167 327.5,295.5C 324.091,295.751 320.758,295.417 317.5,294.5C 316.833,291.358 316.166,288.358 315.5,285.5C 314.523,282.713 314.19,279.713 314.5,276.5C 313.325,260.434 311.492,244.434 309,228.5C 308.617,227.944 308.117,227.611 307.5,227.5C 307.5,226.5 307.5,225.5 307.5,224.5C 307.58,221.219 306.913,218.219 305.5,215.5C 304.245,206.728 302.412,198.061 300,189.5C 299.484,186.749 298.317,184.416 296.5,182.5C 295.719,183.729 295.219,185.062 295,186.5C 293.169,203.142 291.669,219.809 290.5,236.5C 290.5,238.5 290.5,240.5 290.5,242.5C 289.732,243.263 289.232,244.263 289,245.5C 287.334,262.492 285.834,279.492 284.5,296.5C 280.484,297.743 276.484,297.743 272.5,296.5C 271.856,261.484 270.856,226.318 269.5,191C 269.57,185.133 269.903,179.299 270.5,173.5C 273.546,173.817 275.213,172.484 275.5,169.5C 289.872,168.216 303.872,165.216 317.5,160.5 Z"/></g>
<g><path style="opacity:0.957" fill="#fbaf97" d="M 387.5,158.5 C 387.258,162.479 386.258,166.146 384.5,169.5C 384.742,165.521 385.742,161.854 387.5,158.5 Z"/></g>
<g><path style="opacity:1" fill="#3d3d58" d="M 184.5,141.5 C 185.209,140.596 186.209,140.263 187.5,140.5C 191.103,142.763 194.436,145.43 197.5,148.5C 205.202,159.972 208.535,172.638 207.5,186.5C 205.862,182.087 204.862,177.421 204.5,172.5C 203.977,166.431 202.144,160.765 199,155.5C 195.598,149.263 190.764,144.596 184.5,141.5 Z"/></g>
<g><path style="opacity:0.243" fill="#eda8a8" d="M 59.5,152.5 C 59.1667,159.167 58.8333,165.833 58.5,172.5C 57.3814,165.791 57.7147,159.125 59.5,152.5 Z"/></g>
<g><path style="opacity:1" fill="#7b7d8a" d="M 535.5,161.5 C 536.924,163.515 537.59,165.848 537.5,168.5C 536.076,166.485 535.41,164.152 535.5,161.5 Z"/></g>
<g><path style="opacity:0.149" fill="#fec5b6" d="M 401.5,169.5 C 400.1,170.1 399.1,171.1 398.5,172.5C 398.618,169.312 399.451,166.312 401,163.5C 401.495,165.473 401.662,167.473 401.5,169.5 Z"/></g>
<g><path style="opacity:1" fill="#fca48b" d="M 469.5,164.5 C 472.129,169.872 474.296,175.539 476,181.5C 476.765,183.066 476.598,184.399 475.5,185.5C 473.494,178.483 471.494,171.483 469.5,164.5 Z"/></g>
<g><path style="opacity:0.958" fill="#e3e2e2" d="M 58.5,172.5 C 60.1667,173.833 61.8333,175.167 63.5,176.5C 75.3434,187.647 89.01,195.98 104.5,201.5C 104.5,200.5 104.5,199.5 104.5,198.5C 105.124,198.917 105.457,199.584 105.5,200.5C 104.527,202.392 103.86,204.392 103.5,206.5C 104.083,216.256 105.25,225.923 107,235.5C 116.002,253.166 127.335,269.166 141,283.5C 141.791,284.745 142.291,286.078 142.5,287.5C 138.492,290.17 134.492,292.836 130.5,295.5C 128.983,295.489 127.816,294.823 127,293.5C 115.203,276.255 102.203,259.922 88,244.5C 82.2375,228.774 77.7375,212.774 74.5,196.5C 64.4945,202.167 54.8279,208.334 45.5,215C 51.7508,231.584 57.0841,248.417 61.5,265.5C 60.8501,265.196 60.1835,264.863 59.5,264.5C 56.2175,266.037 52.8842,267.37 49.5,268.5C 40.9986,249.163 33.3319,229.496 26.5,209.5C 27.6341,205.519 29.4675,201.852 32,198.5C 40.7285,189.604 49.5618,180.937 58.5,172.5 Z"/></g>
<g><path style="opacity:1" fill="#efaf90" d="M 357.5,174.5 C 356.756,178.119 356.423,181.785 356.5,185.5C 353.302,186.787 349.969,187.453 346.5,187.5C 341.78,187.775 341.446,186.941 345.5,185C 345.167,184.833 344.833,184.667 344.5,184.5C 341.238,185.721 337.904,186.221 334.5,186C 337.44,184.848 340.44,183.848 343.5,183C 339.992,183.24 336.659,183.073 333.5,182.5C 334.263,181.732 335.263,181.232 336.5,181C 335.027,180.29 334.36,179.124 334.5,177.5C 339.822,176.971 345.156,176.471 350.5,176C 348.586,174.587 347.253,172.753 346.5,170.5C 347,170.167 347.5,169.833 348,169.5C 351.291,171.142 353.958,173.475 356,176.5C 356.278,175.584 356.778,174.918 357.5,174.5 Z"/></g>
<g><path style="opacity:0.612" fill="#fdbaa6" d="M 357.5,174.5 C 358.097,173.861 358.93,173.528 360,173.5C 364.005,173.992 367.838,174.659 371.5,175.5C 366.797,175.563 362.13,175.229 357.5,174.5 Z"/></g>
<g><path style="opacity:0.925" fill="#828291" d="M 538.5,171.5 C 540.258,174.854 541.258,178.521 541.5,182.5C 539.742,179.146 538.742,175.479 538.5,171.5 Z"/></g>
<g><path style="opacity:1" fill="#3c3d56" d="M 180.5,173.5 C 183.184,177.02 185.518,180.853 187.5,185C 178.67,185.416 176.336,181.583 180.5,173.5 Z"/></g>
<g><path style="opacity:0.49" fill="#8d8e9a" d="M 490.5,168.5 C 490.376,173.049 489.709,177.382 488.5,181.5C 488.28,176.9 488.946,172.567 490.5,168.5 Z"/></g>
<g><path style="opacity:0.984" fill="#828390" d="M 319.5,172.5 C 320.884,177.944 321.55,183.611 321.5,189.5C 320.116,184.056 319.45,178.389 319.5,172.5 Z"/></g>
<g><path style="opacity:1" fill="#d98c57" d="M 63.5,176.5 C 70.3852,180.775 77.7186,184.275 85.5,187C 91.4088,188.549 97.4088,189.382 103.5,189.5C 103.704,192.518 104.037,195.518 104.5,198.5C 104.5,199.5 104.5,200.5 104.5,201.5C 89.01,195.98 75.3434,187.647 63.5,176.5 Z"/></g>
<g><path style="opacity:0.604" fill="#fde0ab" d="M 223.5,172.5 C 222.262,187.958 221.262,203.291 220.5,218.5C 220.346,203.811 220.846,189.145 222,174.5C 222.278,173.584 222.778,172.918 223.5,172.5 Z"/></g>
<g><path style="opacity:0.776" fill="#f3c5af" d="M 333.5,182.5 C 336.659,183.073 339.992,183.24 343.5,183C 340.44,183.848 337.44,184.848 334.5,186C 337.904,186.221 341.238,185.721 344.5,184.5C 344.833,184.667 345.167,184.833 345.5,185C 341.446,186.941 341.78,187.775 346.5,187.5C 340.477,190.571 335.477,189.238 331.5,183.5C 331.957,182.702 332.624,182.369 333.5,182.5 Z"/></g>
<g><path style="opacity:0.969" fill="#858693" d="M 541.5,182.5 C 544.083,188.83 545.749,195.497 546.5,202.5C 544.232,196.094 542.565,189.427 541.5,182.5 Z"/></g>
<g><path style="opacity:0.965" fill="#fba48d" d="M 393.5,185.5 C 389.555,186.825 385.222,187.492 380.5,187.5C 375.987,187.499 371.653,187.166 367.5,186.5C 376.251,186.803 384.918,186.47 393.5,185.5 Z"/></g>
<g><path style="opacity:1" fill="#e8a880" d="M 204.5,172.5 C 204.862,177.421 205.862,182.087 207.5,186.5C 208.172,187.267 209.005,187.934 210,188.5C 210.543,191.868 210.376,195.201 209.5,198.5C 207.379,198.325 205.379,198.659 203.5,199.5C 203.158,198.662 202.492,198.328 201.5,198.5C 200.685,197.163 199.518,196.163 198,195.5C 197.825,192.843 197.992,190.176 198.5,187.5C 200.5,187.167 202.5,186.833 204.5,186.5C 204.5,181.833 204.5,177.167 204.5,172.5 Z"/></g>
<g><path style="opacity:0.667" fill="#898997" d="M 305.5,215.5 C 302.85,205.245 300.017,194.911 297,184.5C 294.796,201.956 292.629,219.289 290.5,236.5C 291.669,219.809 293.169,203.142 295,186.5C 295.219,185.062 295.719,183.729 296.5,182.5C 298.317,184.416 299.484,186.749 300,189.5C 302.412,198.061 304.245,206.728 305.5,215.5 Z"/></g>
<g><path style="opacity:1" fill="#eda785" d="M 425.5,187.5 C 427.833,187.5 430.167,187.5 432.5,187.5C 433.209,188.404 434.209,188.737 435.5,188.5C 435.905,191.715 436.905,194.715 438.5,197.5C 437.391,197.557 436.391,197.89 435.5,198.5C 433.958,199.301 432.292,199.634 430.5,199.5C 430.5,200.5 430.5,201.5 430.5,202.5C 429.221,201.032 427.554,200.365 425.5,200.5C 423.832,196.353 423.165,192.186 423.5,188C 424.094,187.536 424.761,187.369 425.5,187.5 Z"/></g>
<g><path style="opacity:1" fill="#5e8bd2" d="M 467.5,188.5 C 468.609,188.557 469.609,188.89 470.5,189.5C 471.091,192.94 472.091,196.273 473.5,199.5C 471.353,201.663 468.686,202.663 465.5,202.5C 456.543,204.989 447.543,207.323 438.5,209.5C 437.964,205.686 436.964,202.019 435.5,198.5C 436.391,197.89 437.391,197.557 438.5,197.5C 448.21,194.708 457.876,191.708 467.5,188.5 Z"/></g>
<g><path style="opacity:0.075" fill="#e1c7d0" d="M 467.5,188.5 C 468.209,187.596 469.209,187.263 470.5,187.5C 470.5,188.167 470.5,188.833 470.5,189.5C 469.609,188.89 468.609,188.557 467.5,188.5 Z"/></g>
<g><path style="opacity:1" fill="#3d405c" d="M 170.5,194.5 C 175.927,195.012 181.261,196.012 186.5,197.5C 184.895,200.314 183.895,203.314 183.5,206.5C 190.938,206.701 196.938,204.035 201.5,198.5C 202.492,198.328 203.158,198.662 203.5,199.5C 198.307,206.408 191.307,209.574 182.5,209C 181.578,211.294 180.578,213.461 179.5,215.5C 175.975,215.654 173.141,214.321 171,211.5C 169.544,205.835 169.377,200.168 170.5,194.5 Z"/></g>
<g><path style="opacity:0.592" fill="#848592" d="M 321.5,189.5 C 323.561,199.605 324.894,209.939 325.5,220.5C 323.439,210.395 322.106,200.061 321.5,189.5 Z"/></g>
<g><path style="opacity:1" fill="#ddc9c2" d="M 435.5,198.5 C 436.964,202.019 437.964,205.686 438.5,209.5C 437.194,210.467 436.527,211.801 436.5,213.5C 435.791,214.404 434.791,214.737 433.5,214.5C 432.5,210.501 431.5,206.501 430.5,202.5C 430.5,201.5 430.5,200.5 430.5,199.5C 432.292,199.634 433.958,199.301 435.5,198.5 Z"/></g>
<g><path style="opacity:1" fill="#7dbe8b" d="M 465.5,202.5 C 465.5,203.833 465.5,205.167 465.5,206.5C 461.207,207.656 456.874,208.656 452.5,209.5C 447.116,210.628 441.783,211.961 436.5,213.5C 436.527,211.801 437.194,210.467 438.5,209.5C 447.543,207.323 456.543,204.989 465.5,202.5 Z"/></g>
<g><path style="opacity:0.404" fill="#faa28a" d="M 401.5,172.5 C 404.019,188.252 405.019,204.252 404.5,220.5C 404.167,220.5 403.833,220.5 403.5,220.5C 403.601,204.464 402.935,188.464 401.5,172.5 Z"/></g>
<g><path style="opacity:1" fill="#8e523d" d="M 547.5,211.5 C 547.362,216.414 548.028,221.081 549.5,225.5C 550.903,228.909 551.57,232.575 551.5,236.5C 551.774,243.503 553.108,250.17 555.5,256.5C 555.5,257.167 555.5,257.833 555.5,258.5C 555.215,261.829 555.882,264.829 557.5,267.5C 558.554,272.107 559.221,276.773 559.5,281.5C 559.508,284.545 559.841,287.545 560.5,290.5C 558.742,290.877 557.075,291.544 555.5,292.5C 554.817,292.137 554.15,291.804 553.5,291.5C 553.741,289.102 553.074,287.102 551.5,285.5C 549.399,282.203 548.065,278.537 547.5,274.5C 547.267,271.458 546.267,268.792 544.5,266.5C 543.596,265.791 543.263,264.791 543.5,263.5C 542.072,257.216 540.072,251.216 537.5,245.5C 536.253,237.189 535.086,228.856 534,220.5C 533.722,219.584 533.222,218.918 532.5,218.5C 531.662,218.158 531.328,217.492 531.5,216.5C 536.696,214.435 542.03,212.768 547.5,211.5 Z"/></g>
<g><path style="opacity:1" fill="#feae95" d="M 452.5,211.5 C 455.167,213.833 455.167,216.167 452.5,218.5C 452.5,216.167 452.5,213.833 452.5,211.5 Z"/></g>
<g><path style="opacity:0.671" fill="#848491" d="M 486.5,204.5 C 486.5,210.167 486.5,215.833 486.5,221.5C 488.167,221.5 489.833,221.5 491.5,221.5C 491.5,222.167 491.167,222.5 490.5,222.5C 488.833,222.5 487.167,222.5 485.5,222.5C 485.177,216.31 485.51,210.31 486.5,204.5 Z"/></g>
<g><path style="opacity:0.725" fill="#878995" d="M 305.5,215.5 C 306.913,218.219 307.58,221.219 307.5,224.5C 306.087,221.781 305.42,218.781 305.5,215.5 Z"/></g>
<g><path style="opacity:1" fill="#2a2b49" d="M 450.5,219.5 C 451.222,219.918 451.722,220.584 452,221.5C 453.269,232.011 454.769,242.345 456.5,252.5C 456.702,260.686 457.369,268.686 458.5,276.5C 458.833,283.167 459.167,289.833 459.5,296.5C 460.056,317.171 460.722,337.837 461.5,358.5C 458.167,358.5 454.833,358.5 451.5,358.5C 449.482,342.999 447.149,327.665 444.5,312.5C 443.532,310.393 443.198,308.059 443.5,305.5C 442.051,291.714 439.051,278.381 434.5,265.5C 433.566,264.432 433.232,263.099 433.5,261.5C 433.258,257.521 432.258,253.854 430.5,250.5C 429.857,248.924 428.857,247.59 427.5,246.5C 424.448,261.228 422.281,276.228 421,291.5C 420.5,309.164 420.333,326.83 420.5,344.5C 420.819,349.363 420.486,354.03 419.5,358.5C 419.167,358.5 418.833,358.5 418.5,358.5C 415.5,358.5 412.5,358.5 409.5,358.5C 407.932,332.079 406.598,305.746 405.5,279.5C 405.144,259.834 404.811,240.167 404.5,220.5C 419.886,224.521 435.219,224.187 450.5,219.5 Z"/></g>
<g><path style="opacity:1" fill="#4f5283" d="M 220.5,218.5 C 222.768,223.973 224.435,229.64 225.5,235.5C 226.936,245.002 228.603,254.335 230.5,263.5C 230.481,280.684 231.148,297.684 232.5,314.5C 233.762,321.969 234.429,329.635 234.5,337.5C 234.833,344.167 235.167,350.833 235.5,357.5C 233.167,358.167 230.833,358.833 228.5,359.5C 223.942,347.944 220.608,335.944 218.5,323.5C 217.801,313.52 217.301,303.52 217,293.5C 216.495,290.135 215.328,287.135 213.5,284.5C 210.647,278.78 208.314,272.78 206.5,266.5C 206.496,264.158 205.663,262.158 204,260.5C 203.51,261.793 203.343,263.127 203.5,264.5C 203.634,266.292 203.301,267.958 202.5,269.5C 200.837,271.438 200.171,273.772 200.5,276.5C 199.755,285.391 197.922,294.058 195,302.5C 185.052,316.781 174.719,330.781 164,344.5C 164.046,347.8 164.212,351.134 164.5,354.5C 163.215,351.411 162.549,348.078 162.5,344.5C 161.394,341.923 159.394,340.256 156.5,339.5C 162.381,326.068 168.548,312.735 175,299.5C 177.188,296.433 179.355,293.433 181.5,290.5C 182.268,289.737 182.768,288.737 183,287.5C 183.719,274.032 181.885,261.032 177.5,248.5C 176.238,242.963 176.238,237.297 177.5,231.5C 178.5,229.5 179.5,227.5 180.5,225.5C 194.492,226.835 207.825,224.501 220.5,218.5 Z"/></g>
<g><path style="opacity:1" fill="#8d513d" d="M 505.5,220.5 C 504.422,227.457 503.589,234.457 503,241.5C 502.5,260.164 502.333,278.83 502.5,297.5C 500.388,298.275 498.388,298.275 496.5,297.5C 496.344,290.578 495.344,283.911 493.5,277.5C 492.802,268.606 491.469,259.939 489.5,251.5C 486.951,241.888 487.285,232.222 490.5,222.5C 491.167,222.5 491.5,222.167 491.5,221.5C 496.193,221.46 500.859,221.127 505.5,220.5 Z"/></g>
<g><path style="opacity:0.482" fill="#b89e9a" d="M 546.5,202.5 C 548.271,209.925 549.271,217.592 549.5,225.5C 548.028,221.081 547.362,216.414 547.5,211.5C 546.841,208.545 546.508,205.545 546.5,202.5 Z"/></g>
<g><path style="opacity:0.604" fill="#81818e" d="M 450.5,219.5 C 450.842,218.662 451.508,218.328 452.5,218.5C 454.488,229.741 455.822,241.075 456.5,252.5C 454.769,242.345 453.269,232.011 452,221.5C 451.722,220.584 451.222,219.918 450.5,219.5 Z"/></g>
<g><path style="opacity:0.847" fill="#81828f" d="M 325.5,220.5 C 327.01,228.284 327.677,236.284 327.5,244.5C 326.283,236.693 325.616,228.693 325.5,220.5 Z"/></g>
<g><path style="opacity:0.898" fill="#b8948a" d="M 532.5,218.5 C 533.222,218.918 533.722,219.584 534,220.5C 535.086,228.856 536.253,237.189 537.5,245.5C 535.109,236.768 533.442,227.768 532.5,218.5 Z"/></g>
<g><path style="opacity:0.573" fill="#9e9fb7" d="M 178.5,224.5 C 179.492,224.328 180.158,224.662 180.5,225.5C 179.5,227.5 178.5,229.5 177.5,231.5C 177.674,229.139 178.007,226.806 178.5,224.5 Z"/></g>
<g><path style="opacity:0.404" fill="#9698a3" d="M 403.5,220.5 C 403.833,220.5 404.167,220.5 404.5,220.5C 404.811,240.167 405.144,259.834 405.5,279.5C 405.5,280.167 405.5,280.833 405.5,281.5C 404.034,261.351 403.368,241.018 403.5,220.5 Z"/></g>
<g><path style="opacity:0.533" fill="#bc9b91" d="M 551.5,236.5 C 553.247,242.96 554.581,249.627 555.5,256.5C 553.108,250.17 551.774,243.503 551.5,236.5 Z"/></g>
<g><path style="opacity:0.647" fill="#8e90ad" d="M 225.5,235.5 C 228.428,244.487 230.095,253.82 230.5,263.5C 228.603,254.335 226.936,245.002 225.5,235.5 Z"/></g>
<g><path style="opacity:0.663" fill="#8c8d99" d="M 430.5,250.5 C 432.258,253.854 433.258,257.521 433.5,261.5C 431.742,258.146 430.742,254.479 430.5,250.5 Z"/></g>
<g><path style="opacity:0.412" fill="#ab867c" d="M 515.5,219.5 C 512.977,220.254 510.311,220.92 507.5,221.5C 506.749,222.376 506.249,223.376 506,224.5C 505.201,230.485 504.535,236.485 504,242.5C 503.5,260.83 503.333,279.164 503.5,297.5C 503.167,297.5 502.833,297.5 502.5,297.5C 502.333,278.83 502.5,260.164 503,241.5C 503.589,234.457 504.422,227.457 505.5,220.5C 508.764,219.676 512.098,219.342 515.5,219.5 Z"/></g>
<g><path style="opacity:0.659" fill="#c0a197" d="M 537.5,245.5 C 540.072,251.216 542.072,257.216 543.5,263.5C 540.527,257.915 538.527,251.915 537.5,245.5 Z"/></g>
<g><path style="opacity:0.945" fill="#858593" d="M 307.5,227.5 C 308.117,227.611 308.617,227.944 309,228.5C 311.492,244.434 313.325,260.434 314.5,276.5C 312.262,260.277 309.928,243.943 307.5,227.5 Z"/></g>
<g><path style="opacity:1" fill="#7f808d" d="M 456.5,252.5 C 458.088,260.277 458.754,268.277 458.5,276.5C 457.369,268.686 456.702,260.686 456.5,252.5 Z"/></g>
<g><path style="opacity:0.612" fill="#b8948a" d="M 489.5,251.5 C 491.469,259.939 492.802,268.606 493.5,277.5C 491.345,269.089 490.011,260.423 489.5,251.5 Z"/></g>
<g><path style="opacity:0.588" fill="#9a9db7" d="M 206.5,266.5 C 205.778,265.449 204.778,264.782 203.5,264.5C 203.343,263.127 203.51,261.793 204,260.5C 205.663,262.158 206.496,264.158 206.5,266.5 Z"/></g>
<g><path style="opacity:1" fill="#939adc" d="M 61.5,265.5 C 64.431,269.017 65.931,273.017 66,277.5C 56.6187,282.285 46.7853,285.452 36.5,287C 34.7174,285.933 34.2174,284.433 35,282.5C 38.2216,279.612 41.7216,277.112 45.5,275C 47.6659,273.322 48.9993,271.155 49.5,268.5C 52.8842,267.37 56.2175,266.037 59.5,264.5C 60.1835,264.863 60.8501,265.196 61.5,265.5 Z"/></g>
<g><path style="opacity:0.494" fill="#cbafa9" d="M 555.5,258.5 C 556.657,261.273 557.324,264.273 557.5,267.5C 555.882,264.829 555.215,261.829 555.5,258.5 Z"/></g>
<g><path style="opacity:0.694" fill="#bf9f96" d="M 544.5,266.5 C 546.267,268.792 547.267,271.458 547.5,274.5C 545.733,272.208 544.733,269.542 544.5,266.5 Z"/></g>
<g><path style="opacity:0.408" fill="#9697b2" d="M 177.5,248.5 C 181.885,261.032 183.719,274.032 183,287.5C 182.768,288.737 182.268,289.737 181.5,290.5C 182.442,285.195 182.609,279.861 182,274.5C 180.496,265.821 178.996,257.154 177.5,248.5 Z"/></g>
<g><path style="opacity:0.765" fill="#9b9eb7" d="M 202.5,269.5 C 202.279,272.067 201.612,274.401 200.5,276.5C 200.171,273.772 200.837,271.438 202.5,269.5 Z"/></g>
<g><path style="opacity:0.8" fill="#8d8e9b" d="M 434.5,265.5 C 439.051,278.381 442.051,291.714 443.5,305.5C 440.532,292.282 437.532,278.948 434.5,265.5 Z"/></g>
<g><path style="opacity:0.553" fill="#bf9f96" d="M 493.5,277.5 C 495.344,283.911 496.344,290.578 496.5,297.5C 496.167,297.5 495.833,297.5 495.5,297.5C 494.833,290.833 494.167,284.167 493.5,277.5 Z"/></g>
<g><path style="opacity:0.627" fill="#c1a29a" d="M 551.5,285.5 C 553.074,287.102 553.741,289.102 553.5,291.5C 552.262,289.786 551.595,287.786 551.5,285.5 Z"/></g>
<g><path style="opacity:1" fill="#9299dc" d="M 142.5,287.5 C 144.417,289.262 145.75,291.429 146.5,294C 145.746,298.795 145.246,303.628 145,308.5C 142.621,313.924 138.621,316.258 133,315.5C 131.792,308.909 130.959,302.243 130.5,295.5C 134.492,292.836 138.492,290.17 142.5,287.5 Z"/></g>
<g><path style="opacity:0.6" fill="#c2a7a2" d="M 559.5,281.5 C 560.368,284.449 561.368,287.449 562.5,290.5C 561.833,290.5 561.167,290.5 560.5,290.5C 559.841,287.545 559.508,284.545 559.5,281.5 Z"/></g>
<g><path style="opacity:0.898" fill="#858692" d="M 327.5,249.5 C 328.182,264.372 328.848,279.372 329.5,294.5C 329.043,295.298 328.376,295.631 327.5,295.5C 327.5,280.167 327.5,264.833 327.5,249.5 Z"/></g>
<g><path style="opacity:1" fill="#5b5d91" d="M 560.5,290.5 C 561.167,290.5 561.833,290.5 562.5,290.5C 566.2,296.532 571.533,300.198 578.5,301.5C 579.989,304.211 579.322,306.211 576.5,307.5C 569.681,307.871 563.014,307.205 556.5,305.5C 550.51,305.316 548.343,302.316 550,296.5C 551.176,294.804 552.343,293.138 553.5,291.5C 554.15,291.804 554.817,292.137 555.5,292.5C 557.075,291.544 558.742,290.877 560.5,290.5 Z"/></g>
<g><path style="opacity:0.294" fill="#a4a6b2" d="M 458.5,276.5 C 459.936,282.947 460.603,289.614 460.5,296.5C 460.167,296.5 459.833,296.5 459.5,296.5C 459.167,289.833 458.833,283.167 458.5,276.5 Z"/></g>
<g><path style="opacity:1" fill="#7b7a7e" d="M 315.5,285.5 C 316.166,288.358 316.833,291.358 317.5,294.5C 320.758,295.417 324.091,295.751 327.5,295.5C 328.167,296.5 328.833,297.5 329.5,298.5C 325.566,297.64 321.566,297.307 317.5,297.5C 315.817,293.742 315.151,289.742 315.5,285.5 Z"/></g>
<g><path style="opacity:1" fill="#82838c" d="M 290.5,242.5 C 288.419,264.067 286.419,285.4 284.5,306.5C 284.425,303.794 284.092,301.127 283.5,298.5C 279.731,298.244 276.064,298.577 272.5,299.5C 272.5,298.5 272.5,297.5 272.5,296.5C 276.484,297.743 280.484,297.743 284.5,296.5C 285.834,279.492 287.334,262.492 289,245.5C 289.232,244.263 289.732,243.263 290.5,242.5 Z"/></g>
<g><path style="opacity:1" fill="#2e2f43" d="M 317.5,297.5 C 321.566,297.307 325.566,297.64 329.5,298.5C 331.23,299.026 332.564,300.026 333.5,301.5C 335.102,303.074 337.102,303.741 339.5,303.5C 346.022,306.036 346.022,308.536 339.5,311C 331.714,312.615 324.714,311.115 318.5,306.5C 317.597,303.609 317.264,300.609 317.5,297.5 Z"/></g>
<g><path style="opacity:1" fill="#606294" d="M 495.5,297.5 C 495.833,297.5 496.167,297.5 496.5,297.5C 498.388,298.275 500.388,298.275 502.5,297.5C 502.833,297.5 503.167,297.5 503.5,297.5C 507.302,302.471 511.302,307.304 515.5,312C 513.532,315.283 510.532,316.783 506.5,316.5C 493.602,315.016 489.936,308.683 495.5,297.5 Z"/></g>
<g><path style="opacity:0.8" fill="#9a9bb5" d="M 230.5,263.5 C 231.852,280.316 232.519,297.316 232.5,314.5C 231.148,297.684 230.481,280.684 230.5,263.5 Z"/></g>
<g><path style="opacity:1" fill="#2a2b3f" d="M 284.5,306.5 C 282.759,308.977 281.259,311.644 280,314.5C 279.329,315.252 278.496,315.586 277.5,315.5C 273.363,315.854 269.363,315.354 265.5,314C 264.395,311.88 264.395,309.713 265.5,307.5C 267.782,304.878 270.115,302.212 272.5,299.5C 276.064,298.577 279.731,298.244 283.5,298.5C 284.092,301.127 284.425,303.794 284.5,306.5 Z"/></g>
<g><path style="opacity:0.596" fill="#8688a7" d="M 213.5,284.5 C 215.328,287.135 216.495,290.135 217,293.5C 217.301,303.52 217.801,313.52 218.5,323.5C 217.71,322.391 217.21,321.058 217,319.5C 217.229,307.644 216.062,295.977 213.5,284.5 Z"/></g>
<g><path style="opacity:0.765" fill="#848592" d="M 427.5,246.5 C 422.432,279.119 420.098,311.786 420.5,344.5C 420.333,326.83 420.5,309.164 421,291.5C 422.281,276.228 424.448,261.228 427.5,246.5 Z"/></g>
<g><path style="opacity:0.961" fill="#777881" d="M 317.5,297.5 C 317.264,300.609 317.597,303.609 318.5,306.5C 317.235,305.486 316.569,303.986 316.5,302C 316.508,300.293 316.842,298.793 317.5,297.5 Z"/></g>
<g><path style="opacity:0.671" fill="#898992" d="M 333.5,301.5 C 335.786,301.595 337.786,302.262 339.5,303.5C 337.102,303.741 335.102,303.074 333.5,301.5 Z"/></g>
<g><path style="opacity:0.771" fill="#9497b5" d="M 556.5,305.5 C 563.014,307.205 569.681,307.871 576.5,307.5C 571.684,308.65 566.684,308.816 561.5,308C 559.509,307.626 557.842,306.793 556.5,305.5 Z"/></g>
<g><path style="opacity:0.365" fill="#a4a4ad" d="M 265.5,307.5 C 264.395,309.713 264.395,311.88 265.5,314C 269.363,315.354 273.363,315.854 277.5,315.5C 273.231,316.891 268.898,316.724 264.5,315C 263.903,313.938 263.57,312.772 263.5,311.5C 263.34,309.645 264.007,308.312 265.5,307.5 Z"/></g>
<g><path style="opacity:0.612" fill="#81828f" d="M 405.5,279.5 C 406.598,305.746 407.932,332.079 409.5,358.5C 409.167,358.5 408.833,358.5 408.5,358.5C 406.575,333.026 405.575,307.359 405.5,281.5C 405.5,280.833 405.5,280.167 405.5,279.5 Z"/></g>
<g><path style="opacity:0.796" fill="#7e7f8c" d="M 459.5,296.5 C 459.833,296.5 460.167,296.5 460.5,296.5C 460.945,313.839 461.611,331.173 462.5,348.5C 462.498,352.018 462.165,355.351 461.5,358.5C 460.722,337.837 460.056,317.171 459.5,296.5 Z"/></g>
<g><path style="opacity:0.635" fill="#858693" d="M 444.5,312.5 C 447.149,327.665 449.482,342.999 451.5,358.5C 450.883,358.389 450.383,358.056 450,357.5C 447.919,342.52 446.086,327.52 444.5,312.5 Z"/></g>
<g><path style="opacity:1" fill="#d49c8a" d="M 156.5,339.5 C 159.394,340.256 161.394,341.923 162.5,344.5C 159.562,344.727 157.229,343.727 155.5,341.5C 155.833,340.833 156.167,340.167 156.5,339.5 Z"/></g>
<g><path style="opacity:0.624" fill="#97a0b8" d="M 155.5,341.5 C 154.5,343.167 153.167,344.5 151.5,345.5C 151.833,343.167 153.167,341.833 155.5,341.5 Z"/></g>
<g><path style="opacity:1" fill="#2a3e73" d="M 155.5,341.5 C 157.229,343.727 159.562,344.727 162.5,344.5C 162.549,348.078 163.215,351.411 164.5,354.5C 165.404,355.209 165.737,356.209 165.5,357.5C 166.219,359.764 166.552,362.097 166.5,364.5C 163.482,364.296 160.482,363.963 157.5,363.5C 155.973,363.573 154.973,362.906 154.5,361.5C 154.027,360.094 153.027,359.427 151.5,359.5C 150.89,358.609 150.557,357.609 150.5,356.5C 150.277,354.658 149.943,352.825 149.5,351C 149.954,349.061 150.621,347.228 151.5,345.5C 153.167,344.5 154.5,343.167 155.5,341.5 Z"/></g>
<g><path style="opacity:0.604" fill="#7d86a3" d="M 151.5,345.5 C 150.621,347.228 149.954,349.061 149.5,351C 149.943,352.825 150.277,354.658 150.5,356.5C 148.573,353.863 148.073,350.863 149,347.5C 149.708,346.619 150.542,345.953 151.5,345.5 Z"/></g>
<g><path style="opacity:0.816" fill="#8e90ad" d="M 234.5,337.5 C 235.565,343.698 236.565,350.031 237.5,356.5C 237.376,357.107 237.043,357.44 236.5,357.5C 236.167,357.5 235.833,357.5 235.5,357.5C 235.167,350.833 234.833,344.167 234.5,337.5 Z"/></g>
<g><path style="opacity:1" fill="#d4a393" d="M 235.5,357.5 C 235.833,357.5 236.167,357.5 236.5,357.5C 237.9,358.1 238.9,359.1 239.5,360.5C 238.584,360.018 237.584,359.685 236.5,359.5C 234.098,361.049 231.432,361.716 228.5,361.5C 228.5,360.833 228.5,360.167 228.5,359.5C 230.833,358.833 233.167,358.167 235.5,357.5 Z"/></g>
<g><path style="opacity:0.686" fill="#a4aac1" d="M 151.5,359.5 C 153.027,359.427 154.027,360.094 154.5,361.5C 152.973,361.573 151.973,360.906 151.5,359.5 Z"/></g>
<g><path style="opacity:1" fill="#324477" d="M 239.5,360.5 C 241.167,364.167 243.833,366.833 247.5,368.5C 248.99,370.28 250.99,370.946 253.5,370.5C 254.6,371.605 255.267,372.938 255.5,374.5C 255.423,375.75 254.756,376.583 253.5,377C 244.094,379.417 235.428,377.917 227.5,372.5C 226.706,369.482 227.039,366.482 228.5,363.5C 228.5,362.833 228.5,362.167 228.5,361.5C 231.432,361.716 234.098,361.049 236.5,359.5C 237.584,359.685 238.584,360.018 239.5,360.5 Z"/></g>
<g><path style="opacity:1" fill="#e3a68b" d="M 408.5,358.5 C 408.833,358.5 409.167,358.5 409.5,358.5C 412.5,358.5 415.5,358.5 418.5,358.5C 418.5,359.5 418.5,360.5 418.5,361.5C 415.119,361.54 411.786,361.207 408.5,360.5C 408.5,359.833 408.5,359.167 408.5,358.5 Z"/></g>
<g><path style="opacity:1" fill="#d89e84" d="M 451.5,358.5 C 454.833,358.5 458.167,358.5 461.5,358.5C 461.5,358.833 461.5,359.167 461.5,359.5C 458.456,361.011 455.122,361.678 451.5,361.5C 451.5,360.5 451.5,359.5 451.5,358.5 Z"/></g>
<g><path style="opacity:1" fill="#7f89a6" d="M 165.5,357.5 C 168.284,359.746 168.617,362.08 166.5,364.5C 166.552,362.097 166.219,359.764 165.5,357.5 Z"/></g>
<g><path style="opacity:0.945" fill="#848daa" d="M 239.5,360.5 C 242.5,362.833 245.167,365.5 247.5,368.5C 243.833,366.833 241.167,364.167 239.5,360.5 Z"/></g>
<g><path style="opacity:1" fill="#c6c8d2" d="M 418.5,358.5 C 418.833,358.5 419.167,358.5 419.5,358.5C 419.665,361.518 419.498,364.518 419,367.5C 415.697,369.595 413.197,372.428 411.5,376C 407.086,379.335 402.919,379.169 399,375.5C 398.588,368.381 401.755,363.381 408.5,360.5C 411.786,361.207 415.119,361.54 418.5,361.5C 418.5,360.5 418.5,359.5 418.5,358.5 Z"/></g>
<g><path style="opacity:1" fill="#c6c8d3" d="M 461.5,359.5 C 463.837,361.666 466.337,363.666 469,365.5C 472.337,369.108 472.837,372.941 470.5,377C 463.692,379.285 458.859,377.118 456,370.5C 451.245,368.99 449.745,365.99 451.5,361.5C 455.122,361.678 458.456,361.011 461.5,359.5 Z"/></g>
<g><path style="opacity:0.6" fill="#848da9" d="M 157.5,363.5 C 160.482,363.963 163.482,364.296 166.5,364.5C 163.373,365.815 160.373,365.482 157.5,363.5 Z"/></g>
<g><path style="opacity:0.2" fill="#a2abc2" d="M 228.5,363.5 C 227.039,366.482 226.706,369.482 227.5,372.5C 226.12,372.038 225.453,371.038 225.5,369.5C 225.759,367.013 226.759,365.013 228.5,363.5 Z"/></g>
<g><path style="opacity:0.604" fill="#8f99b1" d="M 247.5,368.5 C 249.698,368.875 251.698,369.542 253.5,370.5C 250.99,370.946 248.99,370.28 247.5,368.5 Z"/></g>
<g><path style="opacity:0.2" fill="#9fa9c0" d="M 253.5,370.5 C 256.309,370.958 256.976,372.291 255.5,374.5C 255.267,372.938 254.6,371.605 253.5,370.5 Z"/></g>
</svg>
